<?xml version="1.0" encoding="UTF-8"?>
<svg id="Layer_2" data-name="Layer 2" xmlns="http://www.w3.org/2000/svg" viewBox="0 0 364.08 297.41">
  <defs>
    <style>
      .cls-1 {
        fill: #fff;
        stroke-width: 0px;
      }
    </style>
  </defs>
  <g id="Layer_1-2" data-name="Layer 1">
    <g>
      <path class="cls-1" d="m342.35,165.64c.78,1.68,1.41,3.13,2.12,4.54,2.39,4.75,2.44,9.56.21,14.33-1.08,2.31-2.25,4.62-3.76,6.66-5.38,7.3-5.95,15.3-3.81,23.75.47,1.85,1.22,3.64,1.79,5.47,2.18,7.01,2.72,14.1.93,21.28-2.95,11.89-11.99,19.49-24.23,20.48-7.5.6-14.72-.26-21.28-4.22-2.17-1.31-4.07-1.32-6.3-.2-4.16,2.08-8.56,3.54-13.13,4.46-10.45,2.09-20.36.69-29.64-4.64-5.12-2.94-4.31-2.76-9.48.07-12.69,6.96-25.58,7.34-38.6.9-.29-.14-.6-.25-.85-.43-3.05-2.26-6.04-2.01-9.41-.42-2.85,1.35-6,2.22-9.11,2.88-6.82,1.44-13.42.71-19.32-3.28-2.41-1.63-4.55-1.63-7.16-.57-2.94,1.2-6.03,2.19-9.14,2.81-15.28,3.04-26.5-4.6-32.3-16.52-2.68-5.52-4.07-11.43-4.14-17.61-.02-1.6-.04-3.2-.18-4.78-.09-1.1-.93-1.77-1.93-1.81-3.54-.13-7.02.42-10.37,1.54-.78.26-1.46,1.22-1.89,2.01-.53.96-.79,2.09-1.1,3.16-3.44,12.01-6.25,24.15-6.88,36.68-.15,3.02,0,6.06.06,9.09.06,2.87.42,5.76.24,8.61-.45,6.95-3.89,12.04-10.16,15.15-5.76,2.86-11.57,3.24-17.59.68-7.3-3.12-12.52-8.24-15.25-15.69-1.09-2.98-1.69-6.15-2.39-9.26-.45-1.99-1.28-3.48-3.25-4.4-9.48-4.42-14.39-12.36-16.56-22.2-1.38-6.26-2.02-12.63-1.33-19.06.05-.48.06-.96.14-1.43.54-3.23-.41-5.81-2.69-8.26-2.49-2.68-4.73-5.66-6.64-8.77-9.82-15.99-10.54-32.48-2.34-49.36,2.89-5.94,6.75-11.22,11-16.24,1.11-1.32,2.62-2.39,3.02-4.58-.58-.68-1.24-1.55-2-2.32-2.37-2.37-4.98-4.54-7.14-7.08C1.92,116.96-1.52,105.41,1.16,92.26c1.38-6.78,4.84-12.47,9.48-17.49,4.49-4.87,9.81-8.66,15.65-11.75,1.53-.81,3.03-1.68,4.71-2.61-.25-1.31-.3-2.42-.68-3.41-4.19-10.86-2.15-21.09,3.33-30.85,5.02-8.93,12.48-15.32,21.7-19.63C66.13,1.47,77.5-.72,89.4.21c7.77.61,14.63,3.33,19.89,9.31,1.43,1.63,3.18,2.56,5.14,3.36,2.8,1.14,5.6,2.37,8.23,3.85,5.04,2.85,7.61,7.21,7.11,13.1-.24,2.86-.59,5.72-1.13,8.54-.45,2.33-.07,4.01,2.18,5.17,3.01,1.55,5.59,3.7,7.93,6.14.53.56,1.23.96,2.05,1.59,1.1-.79,2.17-1.44,3.11-2.23,9.59-8.01,20.35-9.37,31.99-5.64,4.98,1.6,9.18,4.43,12.64,8.37,1.03,1.17,1.7,2.76,3.53,3.24,1.93-.24,3.33-1.65,4.91-2.69,7.27-4.82,15.07-8.44,23.66-10.14,8.05-1.6,15.92-.88,23.48,2.43,4.44,1.95,8.47,4.52,11.55,8.35,1.44,1.79,3.25,3.04,5.24,4.11,2.25,1.21,4.56,2.34,6.71,3.72,2.15,1.37,4.29,2.83,6.17,4.54,4.96,4.53,7.59,10.2,7.59,16.99,0,1.28.02,2.57-.11,3.83-.22,2.09.44,3.67,2.05,5.06,1.69,1.45,3.15,3.17,4.76,4.73.67.64,1.46,1.15,2.05,1.6,2-.33,2.97-1.71,4.16-2.73,6.59-5.66,14.17-8.38,22.9-8.29,10.46.11,17.45,5.26,21.97,14.31.71,1.42,1.22,2.96,1.7,4.48.61,1.95,1.75,2.88,3.88,2.72,3.61-.27,6.97.77,10.17,2.33,1.14.56,2.26,1.22,3.29,1.96,4.92,3.56,7.02,8.31,5.27,14.23-1.76,5.97-3.63,11.93-5.93,17.71-2.87,7.19-7.11,13.58-12.91,18.83-.7.63-1.27,1.41-2.28,2.56Zm-263.6,102.57c-.27-16.56,3.62-32.36,8.28-48.03.89-3.01,2.83-4.43,5.84-4.83,4.28-.57,8.53-1.28,12.81-1.91.79-.11,1.6-.16,2.39-.13,2.17.08,3.27,1.24,3.13,3.33-.05.79-.33,1.58-.35,2.37-.12,3.19-.52,6.41-.2,9.56.8,8,3.56,15.21,9.6,20.87,4.15,3.89,9.03,5.89,14.72,6.07,5.58.18,10.77-1.26,15.76-3.54,4.83-2.21,4.88-2.82,9.39.8,3.23,2.58,7.04,3.63,11.17,3.74,5.08.13,9.81-1.16,14.4-3.16,1.32-.58,2.61-1.22,3.9-1.86,1.56-.77,3.07-.71,4.58.15,1.39.79,2.77,1.6,4.19,2.33,10.77,5.56,21.71,6.06,32.77.94,2.16-1,4.24-2.26,6.19-3.63,2.27-1.6,4.36-1.78,6.57-.04.38.3.8.53,1.2.8,10.42,6.99,21.68,8.09,33.48,4.48,3.34-1.02,6.57-2.51,9.68-4.13,2.4-1.25,4.27-1.37,6.58.3,6.26,4.53,13.36,5.8,20.96,4.83,11.77-1.5,19.4-9.4,20.35-21.23.42-5.15-.08-10.21-1.8-15.13-.79-2.26-1.57-4.54-2.08-6.87-2.02-9.18-.83-17.76,4.81-25.54,1.39-1.93,2.53-4.08,3.53-6.24,1.65-3.56,1.43-7.16-.4-10.62-.74-1.41-1.63-2.74-2.47-4.1-1.74-2.84-1.64-3.61.77-5.69.6-.52,1.26-.98,1.88-1.49,2.96-2.47,5.59-5.25,7.73-8.47,5.57-8.38,8.75-17.73,11.11-27.41.75-3.1-.31-5.66-2.65-7.74-2.58-2.29-5.63-3.61-9.01-4.2-1.65-.29-3.18.04-4.52,1.1-.5.4-.94.88-1.48,1.22-1.42.91-2.89.4-3.4-1.26-.47-1.52-.74-3.1-1.07-4.67-.8-3.8-2.13-7.37-4.46-10.51-2.88-3.88-6.63-6.54-11.48-7.17-10.95-1.4-20.21,1.76-27.3,10.5-.7.87-1.4,1.75-2.21,2.51-.84.79-2.23.71-3.06-.06-.35-.32-.69-.68-.94-1.08-2.55-4.13-5.76-7.65-9.65-10.56-1.39-1.04-2-2.43-1.76-4.19.18-1.27.31-2.54.43-3.81.68-7.7-2.28-13.72-8.5-18.17-1.81-1.3-3.78-2.4-5.71-3.52-1.66-.96-3.38-1.82-5.06-2.74-1.98-1.09-3.76-2.4-5.15-4.22-2.49-3.26-5.86-5.39-9.52-7.09-7.58-3.52-15.44-3.79-23.44-1.85-8.52,2.07-16.06,6.21-23.11,11.32-1.04.75-2,1.6-3.06,2.31-2.15,1.43-3.45,1.16-4.78-.94-.43-.67-.76-1.4-1.16-2.1-1.38-2.38-3.23-4.36-5.35-6.09-7.71-6.25-23.99-9.12-35.01,1.01-1.29,1.19-2.45,2.52-3.7,3.75-2.29,2.27-3.46,2.18-5.39-.36-.29-.38-.54-.79-.8-1.19-2.39-3.55-5.57-6.21-9.5-7.81-4.83-1.98-5.27-2.93-3.72-8,.33-1.07.65-2.16.76-3.27.28-2.69.54-5.4.6-8.1.05-2.38-1.07-4.35-2.95-5.76-1.4-1.05-2.89-2.03-4.46-2.77-2.16-1.02-4.42-1.86-6.67-2.66-1.7-.61-3.14-1.48-4.27-2.93-4.05-5.24-9.64-7.64-16.01-8.72-4.65-.79-9.24-.5-13.85.15-9.62,1.36-18.73,4.18-26.71,9.92-8.47,6.09-14.4,13.99-16.68,24.35-1.35,6.13-.87,12.07,2.02,17.73.51,1,1.06,1.98,1.47,3.01.55,1.39.22,2.58-1.03,3.34-1.36.82-2.83,1.48-4.27,2.17-6.24,3-11.92,6.76-16.87,11.67-11.59,11.49-12.23,27.18-5.84,39.3,3.2,6.06,7.8,10.88,13.09,15.11,1,.8,2.08,1.49,3.04,2.34,1.45,1.3,1.62,2.7.42,4.23-.98,1.26-2.13,2.38-3.22,3.54-5.5,5.87-10.19,12.3-13.51,19.67-3.14,6.98-4.58,14.27-3.97,21.93.87,10.97,5.64,20.19,12.69,28.39.94,1.09,1.94,2.12,2.95,3.15,1.31,1.34,1.9,2.93,1.75,4.79-.09,1.11-.16,2.23-.29,3.34-.72,5.92-.37,11.81.59,17.67.62,3.81,1.75,7.47,3.57,10.89,2.73,5.12,6.58,9,12.13,11.02.6.22,1.21.42,1.8.67,1.27.53,2.08,1.49,2.32,2.84.22,1.26.34,2.53.53,3.8.6,3.97,1.55,7.83,3.49,11.4,2.72,4.98,6.72,8.47,12.03,10.46,5.78,2.17,11.03.87,15.84-2.6,2.86-2.07,4.38-5.06,4.78-8.54.2-1.74.18-3.51.14-5.26-.05-2.4-.22-4.79-.33-7.15Z"/>
      <path class="cls-1" d="m289.94,242.31c-1.42,1.18-2.54,2.04-3.57,2.98-7.76,7.04-16.95,8.58-26.85,6.68-5.95-1.14-10.38-4.76-13.5-9.94-.9-1.49-1.76-3-2.82-4.8-.82.51-1.56.79-2.03,1.31-1.06,1.19-1.95,2.53-2.97,3.76-5.4,6.53-12.33,9.98-20.81,10.3-1.44.05-2.88.07-4.31,0-7.74-.36-13.74-3.76-17.89-10.35-.76-1.21-1.56-2.39-2.36-3.58-.08-.11-.28-.14-.75-.35-.56.51-1.29,1.06-1.86,1.74-2.06,2.44-3.97,5.01-6.13,7.36-2.32,2.52-5.27,4.16-8.65,4.86-5.96,1.23-11.78-1.32-15.31-6.63-.96-1.44-1.81-2.95-2.88-4.68-.98.67-1.8,1.1-2.46,1.71-1.87,1.74-3.55,3.69-5.51,5.32-5.42,4.52-11.67,4.97-17.82,1.44-4.17-2.39-7.16-5.85-9.07-10.22-2.08-4.76-3.23-9.77-2.77-14.95,1.28-14.48,6.49-27.29,16.95-37.64,1.91-1.89,4.15-3.5,6.43-4.95,5.27-3.36,11.1-3.81,17.1-2.74,3.97.71,7.07,2.87,9.34,6.19,2.38,3.49,3.75,7.39,4.42,11.55.39,2.42-.03,4.46-2.6,5.52-.2.08-.25.53-.46,1.03.62.59,1.31,1.22,1.97,1.88,1.02,1.01,2.12,1.96,3.02,3.07,2.12,2.61,3.05,5.46,2.2,8.92-1.06,4.34-1.85,8.76-2.61,13.16-.3,1.71-.34,3.5-.27,5.24.07,1.73,1.72,2.54,3.1,1.44,1.86-1.48,3.7-3.09,5.14-4.96,3.84-4.99,6.58-10.58,8.08-16.71,1.34-5.46,3.19-10.73,5.73-15.73,4.19-8.27,10.51-14.4,18.89-18.37,3.36-1.6,6.91-2.49,10.67-2.39,6.39.18,11.33,4.01,12.92,10.17.9,3.47.87,6.97-.5,10.36-.64,1.58-1.68,2.79-3.51,2.83-1.76.03-3.1-.96-3.83-2.46-.54-1.11-.72-2.41-.91-3.65-.14-.93.04-1.91-.08-2.85-.15-1.16-1.3-1.94-2.47-1.68-.93.2-1.93.41-2.7.92-1.71,1.15-3.56,2.26-4.89,3.79-7.74,8.93-11.69,19.31-11.48,31.18.06,3.27.93,6.32,2.69,9.08,2.24,3.51,4.98,4.68,9.01,3.7,1.53-.37,3.03-1.03,4.43-1.77,2.85-1.51,5.27-3.62,7.33-6.1,4.65-5.59,8.22-11.73,10.18-18.82,1.1-3.99,2.62-7.88,4.17-11.73,2.96-7.34,8.11-12.95,14.46-17.5,3.27-2.35,6.86-4.13,10.84-4.92,1.71-.34,3.48-.56,5.22-.54,7.44.1,12.69,4.9,13.5,12.28.34,3.05.13,6.05-.87,8.99-4.36,12.88-12.33,22.61-24.77,28.45-.58.27-1.17.53-1.73.82-2.65,1.38-3.01,2.3-1.98,4.94,2.16,5.53,6.38,7.65,11.88,5.41,6.8-2.76,11.78-7.62,14.36-14.58,1.07-2.87,2.26-5.58,4.02-8.11,1.26-1.81,2.26-3.86,3.07-5.93,4.19-10.74,9.18-21.1,14.63-31.24,1.65-3.07,3.75-5.93,5.88-8.71,1.42-1.84,2.49-1.91,4.65-.87,3.49,1.68,6.66,3.83,9.16,6.83,2.32,2.78,2.4,4.69.47,7.83-.83,1.36-1.77,2.67-2.51,4.08-3.14,5.99-4.21,12.38-3.36,19.05.42,3.32,1.1,6.62,1.74,9.91.67,3.45,1.56,6.86,2.1,10.33.42,2.67.71,5.41.62,8.1-.35,10.67-7.79,17.5-18.45,16.96-6.47-.33-12.11-2.7-16.65-7.45-.98-1.03-1.97-2.06-3.42-3.59Zm-124.78-42.75c.49-2.35-.52-4.19-1.5-5.98-1.48-2.7-3.84-3.71-6.84-3.26-2.45.36-4.5,1.57-6.33,3.17-2.56,2.24-4.49,4.97-6.09,7.94-3.53,6.53-5.68,13.54-6.7,20.86-.33,2.35-.25,4.78-.12,7.16.08,1.41.45,2.85.97,4.17,1.29,3.19,4.05,4.17,6.99,2.33,1.59-.99,3.12-2.33,4.18-3.86,2.73-3.92,5.25-7.99,7.74-12.07,1.77-2.9,2.68-6.13,2.98-9.52.22-2.38.37-4.77.57-7.16.08-.93.22-1.85.34-2.9,1.36-.32,2.56-.59,3.81-.88Zm96.13,19.54c1.16-.37,1.95-.47,2.58-.84,8.47-4.95,14.39-12,17.45-21.37.25-.75.45-1.54.54-2.33.29-2.39-1.2-3.58-3.55-2.83-3.16,1-5.56,3.08-7.68,5.52-4.81,5.56-7.67,12.08-9.33,19.18-.17.71-.02,1.49-.02,2.67Zm45.56-9.34c-1.81,2.28-2.26,4.23-1.39,6.55.9,2.38,1.77,4.79,2.44,7.24.49,1.8,1,3.72-.34,5.69-1.22-.06-2.47-.25-3.71-.17-4.32.3-6.65,4.49-4.67,8.3.83,1.6,2.04,2.82,3.63,3.68,5.35,2.89,9.65.58,9.9-5.52.09-2.19-.32-4.45-.8-6.61-1.22-5.6-2.58-11.17-3.93-16.75-.17-.7-.61-1.32-1.14-2.42Z"/>
      <path class="cls-1" d="m57.69,212.53c-.79.34-1.7.59-2.45,1.07-3.81,2.42-7.15,5.38-10.02,8.86-3.99,4.84-5.31,10.46-4.67,16.61.25,2.45,1.25,4.61,2.72,6.56.89,1.18,1.74,2.46.97,3.95-.84,1.65-2.53,1.84-4.16,1.78-3.63-.14-6.47-1.58-8.04-5.04-1.2-2.65-1.98-5.4-2.14-8.31-.57-10.5,2.07-19.91,9.26-27.87,5.31-5.88,11.32-10.81,18.35-14.47,1.28-.66,2.55-1.34,3.84-1.97,1.53-.75,2.47-1.98,2.95-3.59.27-.92.53-1.84.81-2.76,2.94-9.8,5.91-19.59,8.82-29.4.49-1.65,1.43-3.25.82-5.43-.77-.1-1.69-.47-2.51-.3-11.99,2.36-22.81,7.33-32.19,15.18-2.42,2.03-4.58,4.5-6.41,7.08-3.69,5.19-3.78,10.69-.55,16.22,1.47,2.52,3.45,4.58,5.66,6.46.97.83,1.98,1.65,2.76,2.64,1.47,1.88.85,4.23-1.29,5.17-.72.32-1.52.53-2.3.59-4.58.37-8.96-.41-12.91-2.81-1.47-.89-2.86-2.12-3.88-3.49-4.53-6.15-6.45-13.06-6.04-20.73.68-12.7,6.55-22.5,16.42-30.14,4.7-3.64,9.81-6.59,15.23-9.03,11-4.95,22.59-7.98,34.33-10.52,12.36-2.67,24.91-4.17,37.44-5.74,7.61-.95,15.23-1.9,22.83-2.99,2.84-.41,5.62-1.23,8.44-1.79,2.04-.41,2.99.22,3.56,2.2.13.46.25.93.31,1.4.55,4.79.69,9.59-.15,14.34-.92,5.23-2.53,5.69-6.55,6.06-12.58,1.16-25.14,2.44-37.7,3.74-4.45.46-8.88,1.12-13.32,1.73-.93.13-1.83.42-3.08.72.28.93.46,1.63.7,2.31.11.29.33.54.53.8,2.76,3.56,2.66,7.26.9,11.27-2.26,5.12-4.25,10.35-6.31,15.55-.53,1.33-.99,2.71-1.33,4.1-.42,1.76.5,2.72,2.38,2.57.95-.08,1.9-.28,2.84-.44,8.99-1.48,17.98-2.97,26.98-4.44,1.1-.18,2.22-.35,3.33-.35,1.39,0,2.45.86,2.74,2.22.2.93.37,1.92.25,2.85-.35,2.69-.65,5.41-1.34,8.02-1.17,4.45-2.47,5.38-7.04,5.75-4.78.38-9.57.64-14.34,1.15-5.4.57-10.81,1.2-16.16,2.1-6.61,1.11-6.68,1.28-8.52,7.89-4.15,14.96-7.71,30.05-9.56,45.48-.68,5.7-.91,11.46-1.34,17.2-.09,1.27-.02,2.57-.24,3.82-.49,2.82-2.71,4.06-5.33,2.87-1.27-.58-2.48-1.49-3.45-2.51-2.48-2.61-4.08-5.73-4.51-9.35-.88-7.32-1.17-14.64-.48-22.01.87-9.25,2.33-18.39,4.17-27.48.28-1.4.43-2.83.58-4.26.02-.24-.29-.52-.62-1.07Z"/>
      <path class="cls-1" d="m112.01,59.98c2.63-1.28,4.16-2.11,5.76-2.78,4.29-1.79,6.74-1.27,9.94,2.03,2.97,3.06,4.4,6.51,3.27,10.9-1.39,5.41-2.61,10.88-3.72,16.36-.66,3.27-1.06,6.61-1.41,9.94-.11,1.02.36,2.09.64,3.52,1.02-.4,1.92-.48,2.36-.97,1.93-2.12,3.92-4.22,5.51-6.58,2.33-3.46,3.93-7.3,5-11.36,1.58-5.95,4.42-11.29,8.22-16.12,2.4-3.05,5.24-5.6,8.71-7.39,3.68-1.89,7.54-2.51,11.63-1.72,3.69.71,6.56,2.62,8.27,5.93,1.09,2.11,1.89,4.4,2.5,6.7.71,2.63.51,2.87-1.57,5.97.84.98,1.72,2.05,2.66,3.08,2.08,2.28,2.9,4.82,2.17,7.94-.8,3.42-1.4,6.89-1.95,10.36-.22,1.37-.72,3.14.76,3.96,1.79,1,2.95-.64,3.99-1.75,2.2-2.35,4.1-4.93,4.6-8.25,1.28-8.5,5.68-15.21,12.11-20.63,9.5-8.01,20.47-12.28,32.99-12.24,1.58,0,3.21.18,4.75.54,5.23,1.24,8.75,4.44,10.47,9.55.31.91.6,1.83.75,2.77,1.17,7.49.13,14.67-3.27,21.44-1.99,3.96-5.67,5.19-9.68,3.38-2.56-1.16-4.45-3.08-5.75-5.56-.66-1.26-.53-2.47.53-3.5,1.03-1,2.09-1.98,3.11-2.99,2.18-2.15,4.04-4.55,5.25-7.38.5-1.16.89-2.41,1.05-3.66.25-1.91-.7-3.51-2.52-4.16-1.33-.47-2.79-.8-4.2-.79-8.86.03-17.04,2.44-24.4,7.4-1.44.97-2.74,2.22-3.88,3.55-3.61,4.2-4.68,8.97-2.91,14.31,1.44,4.35,4.09,7.94,7.15,11.24,3.59,3.87,7.25,7.66,10.89,11.48.88.93,1.82,1.81,2.63,2.79,1.51,1.85,3.11,3.67,4.4,5.68,6.75,10.51,7.37,19.06-.28,30.32-7.2,10.6-17.38,16.55-30.48,15.78-11.14-.65-20.73-5.2-27.99-13.87-7.27-8.69-6.18-22.31,2.12-30.04,1.73-1.61,3.5-2.23,5.62-1.09,2.66,1.44,5.31,2.92,7.86,4.54.87.56,1.43,1.62,2.3,2.65-.86.95-1.5,1.84-2.31,2.53-1.34,1.14-2.88,2.04-4.16,3.23-4.88,4.52-5.05,11.36-.48,16.22,2.03,2.16,4.58,3.48,7.4,4.23,5.85,1.54,11.72,1.58,17.52-.2,10.82-3.33,15.73-14.02,11.31-24.47-1.26-2.98-3.08-5.61-5.3-7.93-2.32-2.43-4.72-4.77-7.14-7.1-4.03-3.88-8.07-7.75-11.29-12.38-.44-.63-1.08-1.12-1.8-1.85-.87.6-1.7,1.03-2.35,1.64-1.28,1.2-2.39,2.58-3.71,3.74-5.42,4.74-13.55,3.62-17.15-2.18-.65-1.05-1.47-2-2.39-3.23-1.09.8-1.99,1.39-2.8,2.07-1.34,1.13-2.55,2.44-3.95,3.48-3.68,2.74-7.64,3-11.74.97-2.64-1.3-4.77-3.18-6.41-5.63-.7-1.04-1.45-2.04-2.41-3.39-1.04,1.14-1.86,2.05-2.7,2.95-1.63,1.75-3.08,3.72-4.92,5.21-5.47,4.42-12.93,2.86-16.39-3.3-1.44-2.56-1.97-5.38-2.14-8.28-.27-4.67.44-9.25,1.31-13.81.6-3.14,1.38-6.24,2.01-9.37.31-1.53.93-3.08.03-4.96-.57.35-1.07.64-1.56.95-.13.08-.22.23-.33.35-9.95,11.6-10.93,14.26-12.21,29.75-.18,2.23-.05,4.48-.23,6.7-.16,1.98-1.44,3.03-3.26,2.46-1.95-.61-3.85-1.52-5.59-2.58-1.78-1.09-2.28-3.06-2.25-5.04.05-4.15,0-8.32.37-12.44.63-6.86,2.22-13.55,4.06-20.19,1.96-7.08,4.1-14.13,5.87-21.26,1.58-6.35,2.87-12.78,4.08-19.21.63-3.33,1.67-5.2,5.97-2.96,1.4.73,2.66,1.76,3.87,2.79,3.08,2.63,4.21,5.93,3.09,9.89-1.47,5.23-2.97,10.45-4.44,15.68-.42,1.5-.78,3.02-1.46,5.62Zm38.94,32.3c.37,1.43.72,3.63,1.53,5.66.71,1.78,2.78,2.45,4.43,1.46,1.46-.88,2.87-2.05,3.91-3.39,4.55-5.86,8.18-12.17,8.34-19.89,0-.32.05-.63.09-.95.13-1.13.55-2.05,1.4-2.92,1.74-1.78,1.8-2.65.8-4.54-1.53-2.91-4.09-3.83-7.26-2.54-2.77,1.13-4.7,3.26-6.3,5.67-4.15,6.25-5.98,13.29-6.95,21.45Z"/>
      <path class="cls-1" d="m262.96,104.37c.65-.13,1.27-.16,1.8-.39,1.32-.56,2.59-1.25,3.9-1.83,3.35-1.47,6.18-.62,8.74,1.85,3.21,3.1,4.87,6.68,3.86,11.21-1.11,4.99-2.26,9.97-3.34,14.96-.71,3.28-1.41,6.56-1.95,9.87-.43,2.6-.29,2.82.69,5.49,1.32.49,2.11-.45,2.89-1.19,4.74-4.52,7.85-10.05,9.69-16.28,1.32-4.46,2.9-8.8,5.31-12.8,2.58-4.28,5.66-8.11,9.79-11.03,4.13-2.92,8.69-3.85,13.65-3.24,3.92.49,6.99,2.37,8.83,5.84,1.11,2.09,1.83,4.41,2.59,6.66.77,2.27.65,4.43-1.76,6.11,1.1,1.25,2.01,2.31,2.95,3.34,2.08,2.29,2.86,4.87,2.15,7.96-.75,3.27-1.34,6.57-1.9,9.88-.21,1.24-.21,2.54-.16,3.8.04.99,1.38,1.73,2.15,1.17,1.28-.93,2.56-1.91,3.59-3.09,2.44-2.8,4.06-6.11,5.47-9.52.92-2.21,1.77-4.46,2.8-6.62.88-1.85,1.99-2.36,3.37-1.86,2.23.81,3.3,2.36,2.96,4.29-.06.31-.14.62-.25.92-2.46,6.59-4.93,13.2-9.11,18.94-1.58,2.18-3.37,4.31-5.42,6.04-5.39,4.55-12.69,3.54-16.84-2.1-.83-1.13-1.6-2.32-2.58-3.74-.92.7-1.69,1.19-2.36,1.79-1.43,1.27-2.73,2.71-4.24,3.87-3.77,2.92-7.86,3.24-12.15,1.15-2.5-1.22-4.55-2.93-6.17-5.19-.82-1.15-1.66-2.28-2.71-3.71-.88.78-1.61,1.32-2.2,1.97-1.61,1.77-3.07,3.68-4.74,5.38-5.49,5.6-14.47,3.81-17.85-3.63-1.69-3.72-2.19-7.72-1.66-11.73.71-5.38,1.71-10.72,2.64-16.06.33-1.89.88-3.73,1.2-5.62.12-.7-.1-1.45-.21-2.76-1.06.8-1.79,1.13-2.22,1.7-2.8,3.68-5.67,7.33-8.23,11.17-1.12,1.68-1.79,3.76-2.24,5.75-1.19,5.3-1.99,10.68-2.02,16.14,0,1.12,0,2.24-.14,3.35-.26,2.16-1.57,3.24-3.6,2.75-5.23-1.26-7.5-3.8-7.66-8.38-.22-6.27.16-12.49,1.54-18.58,1.9-8.41,4.03-16.77,6.33-25.08,2.64-9.55,5.24-19.1,6.85-28.89.81-4.91,2.54-5.69,6.76-3.14,1.35.82,2.6,1.86,3.73,2.97,2.58,2.52,3.72,5.47,2.63,9.13-1.6,5.36-3.08,10.75-4.57,16.14-.41,1.48-1.29,2.94-.58,4.84Zm38.51,33.18c.29,1.46.47,3.55,1.15,5.46.94,2.63,3.49,3.28,5.84,1.68.78-.53,1.5-1.21,2.09-1.94,5.14-6.45,9.31-13.32,9.27-21.96,0-.48-.07-1.01.1-1.42.29-.68.65-1.41,1.18-1.9,1.76-1.61,2.01-2.2,1.31-3.89-1.36-3.28-4.05-4.47-7.35-3.24-2.65.98-4.56,2.92-6.1,5.17-4.42,6.45-6.54,13.73-7.49,22.04Z"/>
      <path class="cls-1" d="m38.91,85.88c-1.04,1-1.78,1.8-2.61,2.48-1.24,1-2.64,1.83-3.82,2.89-5.11,4.58-5.37,11.07-.72,16.14,1.66,1.81,3.68,3.1,6.01,3.81,6.27,1.92,12.64,2.14,18.89.16,11.02-3.48,15.68-14.62,10.63-25.04-1.62-3.34-3.9-6.22-6.53-8.82-3.53-3.48-7.1-6.91-10.63-10.39-2.63-2.59-4.91-5.45-6.83-8.62-4.04-6.67-4.3-13.57-1.38-20.68,2.04-4.96,5.1-9.22,9.11-12.78,9.06-8.06,19.74-12.33,31.78-13.01,11.05-.62,17.56,5.37,18.16,16.38.33,6.02-.84,11.79-3.48,17.21-2.39,4.89-7.08,6-11.53,2.78-1.02-.74-1.97-1.65-2.76-2.64-2.52-3.16-1.9-4.42.49-6.48,2.43-2.09,4.69-4.4,6.15-7.29.85-1.69,1.54-3.52,1.92-5.36.4-1.92-.59-3.58-2.46-4.14-1.81-.54-3.76-.95-5.63-.85-7.29.36-14.18,2.24-20.54,5.92-.69.4-1.37.83-2.02,1.29-7.91,5.62-9.81,13.39-4.94,21.75,1.83,3.14,4.24,5.99,6.67,8.73,3.07,3.47,6.43,6.67,9.65,10.01,3.12,3.23,5.86,6.75,8.13,10.64,4.57,7.84,4.84,15.86.48,23.75-6.96,12.6-17.47,19.93-32.23,19.37-10.64-.4-19.7-4.9-27.12-12.65-6.72-7.01-7.79-21.49.36-29.79,2.76-2.81,4.11-3.24,7.62-1.58,3.29,1.56,6.65,3.12,9.18,6.8Z"/>
    </g>
  </g>
</svg>